<svg width="32" height="32" viewBox="0 0 32 32" fill="none" xmlns="http://www.w3.org/2000/svg">
<g id="Star / default">
<path id="Star 1" d="M15.1033 5.81699C15.4701 5.07374 16.5299 5.07374 16.8967 5.81699L19.294 10.6745C19.4397 10.9696 19.7213 11.1742 20.047 11.2215L25.4075 12.0004C26.2277 12.1196 26.5552 13.1276 25.9617 13.7061L22.0828 17.4871C21.8471 17.7169 21.7396 18.0479 21.7952 18.3723L22.7109 23.7111C22.851 24.528 21.9936 25.151 21.26 24.7653L16.4653 22.2446C16.174 22.0915 15.826 22.0915 15.5347 22.2446L10.7401 24.7653C10.0064 25.151 9.14899 24.528 9.2891 23.7111L10.2048 18.3723C10.2604 18.0479 10.1529 17.7169 9.91719 17.4871L6.03827 13.7061C5.44476 13.1276 5.77226 12.1196 6.59249 12.0004L11.953 11.2215C12.2787 11.1742 12.5603 10.9696 12.706 10.6745L15.1033 5.81699Z" fill="#D1D5DF" fill-opacity="0.4"/>
</g>
</svg>
